<svg width="24" height="24" viewBox="0 0 24 24" fill="none" xmlns="http://www.w3.org/2000/svg">
<path d="M9 8L12 5L15 8" stroke="#E8E8E8" stroke-width="1.5" stroke-linecap="round" stroke-linejoin="round"/>
<path d="M12 15L12 5" stroke="#E8E8E8" stroke-width="1.5" stroke-linecap="round" stroke-linejoin="round"/>
<path d="M18.8946 5.10566C18.6017 4.81276 18.1268 4.81276 17.8339 5.10566C17.541 5.39855 17.541 5.87342 17.8339 6.16632L18.8946 5.10566ZM6.16658 6.16632C6.45947 5.87342 6.45947 5.39855 6.16658 5.10566C5.87369 4.81276 5.39881 4.81276 5.10592 5.10566L6.16658 6.16632ZM17.8339 6.16632C21.056 9.38842 21.056 14.6115 17.8339 17.8337L18.8946 18.8943C22.7025 15.0864 22.7025 8.91355 18.8946 5.10566L17.8339 6.16632ZM17.8339 17.8337C14.6118 21.0558 9.38869 21.0558 6.16658 17.8337L5.10592 18.8943C8.91381 22.7022 15.0867 22.7022 18.8946 18.8943L17.8339 17.8337ZM6.16658 17.8337C2.94447 14.6115 2.94447 9.38842 6.16658 6.16632L5.10592 5.10566C1.29803 8.91355 1.29803 15.0864 5.10592 18.8943L6.16658 17.8337Z" fill="#E8E8E8"/>
</svg>
